<svg xmlns="http://www.w3.org/2000/svg" width="2706" height="1080" viewBox="0 0 2706 1080" fill="none"><g clip-path="url(#clip0_73_27)"><path d="M689.901 758.641V581.578" stroke="#001D4C" stroke-width="34.7364" stroke-linecap="round" stroke-linejoin="round"></path><path d="M645.832 467.625L573.464 539.992L354.185 759.295V656.243V296.676L689.901 758.646" stroke="#06175D" stroke-width="34.7364" stroke-linecap="round" stroke-linejoin="round"></path><path d="M540.025 1060.32L258.962 779.229L19.7208 539.988L285.477 274.255L540.025 19.6836L783.272 262.931L1060.35 539.988L796.773 803.591L540.025 1060.32Z" stroke="#06175D" stroke-width="39.3679" stroke-linejoin="round"></path><path d="M554.011 33.6719L783.272 262.932L1046.36 526.002" stroke="#43996A" stroke-width="39.3679" stroke-linejoin="round"></path><path d="M526.131 1046.4L258.962 779.227L33.6615 553.927" stroke="#43996A" stroke-width="39.3679" stroke-linejoin="round"></path><path opacity="0.4" d="M672.671 407.34C677.511 403.519 683.555 401.574 689.715 401.806C695.875 402.06 701.734 404.492 706.273 408.66" stroke="#002D87" stroke-width="9.26303" stroke-linecap="round" stroke-linejoin="round"></path><path d="M689.854 477.83C719.782 477.83 744.043 453.569 744.043 423.641C744.043 393.713 719.782 369.452 689.854 369.452C659.926 369.452 635.665 393.713 635.665 423.641C635.665 453.569 659.926 477.83 689.854 477.83Z" stroke="#06175D" stroke-width="27.7891" stroke-linecap="round"></path><path d="M573.464 539.989L354.185 759.292V656.24" stroke="#43996A" stroke-width="34.7364" stroke-linecap="round" stroke-linejoin="round"></path></g><path d="M1286.68 240.204H1246.45C1242.36 240.204 1239.04 243.525 1239.04 247.621V480.424C1239.04 484.52 1242.36 487.841 1246.45 487.841H1286.68C1290.78 487.841 1294.1 484.52 1294.1 480.424V247.621C1294.1 243.525 1290.78 240.204 1286.68 240.204Z" fill="#06175D"></path><path d="M1999.13 302.042C1999.13 302.06 1999.1 302.062 1999.1 302.045C1995.49 285.232 1988.59 271.998 1978.93 262.893C1969.25 253.762 1955.96 247.398 1939.64 244.354C1924.98 241.588 1906.44 240.204 1884.03 240.204H1714.36C1710.27 240.204 1706.95 243.525 1706.95 247.621V480.424C1706.95 484.52 1710.27 487.841 1714.36 487.841H1884.03C1906.44 487.841 1924.98 486.457 1939.64 483.414C1955.96 480.093 1969.25 473.729 1978.93 464.045C1988.61 454.638 1995.53 441.357 1999.13 424.479C2002.45 409.538 2004.11 390.169 2004.11 366.651V360.84C2004.11 336.563 2002.46 317.236 1999.16 302.038C1999.15 302.021 1999.13 302.025 1999.13 302.042V302.042ZM1883.89 436.515C1883.8 436.426 1883.68 436.376 1883.55 436.376H1769.15C1765.05 436.376 1761.73 433.056 1761.73 428.96V299.085C1761.73 294.989 1765.05 291.668 1769.15 291.668H1883.75C1897.03 291.668 1908.1 291.945 1917.23 292.775C1924.98 293.328 1930.79 294.712 1935.21 296.925C1938.26 298.585 1940.75 300.799 1942.41 304.119C1944.07 307.163 1946 312.973 1947.39 323.764C1948.49 333.448 1949.05 346.176 1949.05 361.394V367.204C1949.05 385.466 1948.22 399.854 1946.28 410.368C1944.9 418.392 1942.41 424.479 1939.09 427.799C1935.77 431.119 1930.23 433.333 1923.04 434.44C1913.39 435.818 1900.45 436.646 1884.22 436.653C1884.1 436.653 1883.98 436.603 1883.89 436.515V436.515Z" fill="#06175D"></path><path d="M2299.9 240.204C2295.8 240.204 2292.48 243.525 2292.48 247.621V366.928C2292.48 382.422 2291.93 395.703 2290.82 405.941C2289.71 415.071 2288.05 421.989 2285.84 426.969C2283.9 430.843 2281.41 433.333 2278.09 435.27C2273.94 437.483 2267.86 439.143 2260.39 439.973C2251.53 440.803 2240.46 441.357 2227.46 441.357H2175.72C2162.71 441.357 2151.65 440.803 2142.79 439.973C2135.32 439.143 2129.23 437.76 2125.08 435.27C2121.76 433.61 2119.27 430.843 2117.34 426.969C2114.85 421.989 2113.19 415.071 2112.36 405.941C2111.25 395.703 2110.7 382.699 2110.7 366.928V247.621C2110.7 243.525 2107.38 240.204 2103.28 240.204H2063.05C2058.96 240.204 2055.64 243.525 2055.64 247.621V366.928C2055.64 391.276 2057.3 411.751 2060.62 427.246C2064.21 444.4 2071.13 458.235 2080.54 467.919C2090.22 477.603 2103.5 484.244 2119.83 487.841C2134.49 490.884 2153.31 492.544 2175.72 492.544H2227.46C2249.87 492.544 2268.69 490.884 2283.35 487.841C2299.95 484.244 2312.96 477.603 2322.64 467.919C2332.32 458.235 2338.96 444.4 2342.56 427.246C2345.88 411.751 2347.54 391.553 2347.54 366.928V247.621C2347.54 243.525 2344.22 240.204 2340.13 240.204H2299.9Z" fill="#06175D"></path><path d="M2702.03 377.718C2701.95 377.718 2701.88 377.663 2701.86 377.585C2699.08 366.854 2693.56 358.046 2685.02 351.433C2677.27 345.345 2666.48 341.195 2652.09 338.705C2639.36 336.491 2622.49 335.385 2602.01 335.108L2516.79 334.001C2501.57 334.001 2489.67 333.171 2480.82 332.341C2471.14 331.511 2467.26 329.574 2466.16 329.021C2465.35 328.62 2464.84 328.219 2464.62 327.608C2464.44 327.099 2464.43 326.542 2464.32 326.012C2463.79 323.409 2463.11 319.098 2463.11 311.866C2463.11 302.459 2464.22 297.202 2465.05 294.711C2465.6 293.328 2466.16 292.221 2468.09 291.391C2470.31 290.561 2475.29 288.624 2486.63 288.071C2496.59 287.517 2510.15 286.964 2526.75 286.964H2586.52C2600.35 286.964 2611.97 286.964 2621.38 287.241C2630.79 287.241 2636.04 288.901 2638.81 290.008C2640.19 290.561 2641.85 291.668 2643.24 295.541C2644.62 298.862 2646 305.779 2646 319.613V326.031C2646 330.127 2649.32 333.448 2653.42 333.448H2693.65C2697.74 333.448 2701.06 330.127 2701.06 326.031V319.613C2701.06 301.352 2699.13 287.241 2695.25 276.173C2690.83 263.446 2683.36 254.038 2672.84 247.951C2663.43 242.417 2651.26 239.097 2636.32 237.437C2623.04 236.053 2606.16 235.5 2586.24 235.5H2525.09C2503.23 235.5 2484.69 236.607 2470.58 238.544C2455.09 240.757 2442.91 244.354 2433.78 250.164C2423.55 256.528 2416.63 265.382 2412.75 276.45C2409.43 286.134 2407.77 297.755 2407.77 311.866C2407.77 324.594 2408.88 335.108 2411.37 344.239C2414.14 355.03 2419.95 363.607 2428.8 369.971C2436.83 375.781 2447.62 379.932 2461.73 382.422C2474.46 384.635 2490.78 386.019 2511.26 386.295L2590.94 387.402C2607.82 387.402 2620.82 388.232 2630.51 388.786C2641.3 389.616 2645.73 391.276 2647.11 391.829C2648.49 392.383 2648.77 393.213 2649.05 394.043C2649.6 396.533 2650.43 401.513 2650.43 410.367C2650.43 418.668 2649.88 425.585 2648.77 430.289C2647.94 433.332 2646.83 434.439 2645.45 435.269C2644.07 436.099 2639.92 438.313 2629.4 439.42C2619.99 440.526 2606.99 441.08 2590.39 441.08H2524.81C2509.87 441.08 2497.7 440.803 2488.01 440.25C2478.33 439.696 2473.63 437.759 2471.14 436.376C2469.75 435.546 2467.54 433.609 2465.88 428.629C2464.77 424.478 2463.11 416.454 2463.11 401.237V394.819C2463.11 390.723 2459.79 387.402 2455.7 387.402H2415.47C2411.37 387.402 2408.05 390.723 2408.05 394.819V401.237C2408.05 420.051 2409.99 434.993 2413.86 446.89C2418.29 460.171 2425.76 470.409 2436.27 477.326C2445.96 483.69 2458.41 487.84 2473.9 489.777C2487.74 491.437 2504.89 492.544 2524.81 492.544H2591.77C2613.91 492.544 2632.17 491.437 2646 488.947C2661.5 486.18 2673.4 481.753 2682.25 475.112C2691.66 467.919 2698.02 458.511 2701.34 446.89C2704.11 436.929 2705.49 425.032 2705.49 410.644C2705.49 397.704 2704.4 386.955 2702.2 377.853C2702.18 377.773 2702.11 377.718 2702.03 377.718V377.718Z" fill="#06175D"></path><path d="M1500.56 592.15C1497.8 592.15 1495.28 593.676 1494 596.113L1405.53 764.23C1402.75 769.513 1395.18 769.513 1392.4 764.23L1303.93 596.113C1302.65 593.676 1300.12 592.15 1297.37 592.15H1251.45C1245.84 592.15 1242.26 598.142 1244.92 603.084L1370.3 835.887C1371.59 838.289 1374.1 839.787 1376.83 839.787H1421.09C1423.82 839.787 1426.33 838.286 1427.62 835.881L1552.74 603.078C1555.4 598.137 1551.82 592.15 1546.21 592.15H1500.56Z" fill="#43996A"></path><path d="M1634.48 592.15H1594.25C1590.16 592.15 1586.84 595.471 1586.84 599.567V832.37C1586.84 836.466 1590.16 839.787 1594.25 839.787H1634.48C1638.58 839.787 1641.9 836.466 1641.9 832.37V599.567C1641.9 595.471 1638.58 592.15 1634.48 592.15Z" fill="#43996A"></path><path d="M1968.53 729.664C1968.45 729.664 1968.38 729.609 1968.36 729.531C1965.58 718.8 1960.06 709.992 1951.51 703.379C1943.77 697.292 1932.98 693.141 1918.59 690.651C1905.86 688.438 1888.98 687.331 1868.51 687.054L1783.29 685.948C1768.07 685.948 1756.17 685.117 1747.32 684.287C1737.63 683.457 1733.76 681.52 1732.65 680.967C1731.85 680.566 1731.34 680.165 1731.12 679.554C1730.94 679.045 1730.93 678.488 1730.82 677.958C1730.28 675.355 1729.61 671.045 1729.61 663.812C1729.61 654.405 1730.72 649.148 1731.55 646.658C1732.1 645.274 1732.65 644.167 1734.59 643.337C1736.8 642.507 1741.78 640.571 1753.13 640.017C1763.09 639.464 1776.65 638.91 1793.25 638.91H1853.01C1866.85 638.91 1878.47 638.91 1887.88 639.187C1897.28 639.187 1902.54 640.847 1905.31 641.954C1906.69 642.507 1908.35 643.614 1909.73 647.488C1911.12 650.808 1912.5 657.725 1912.5 671.56V677.978C1912.5 682.074 1915.82 685.394 1919.92 685.394H1960.15C1964.24 685.394 1967.56 682.074 1967.56 677.978V671.56C1967.56 653.298 1965.63 639.187 1961.75 628.12C1957.32 615.392 1949.85 605.984 1939.34 599.897C1929.93 594.364 1917.76 591.043 1902.82 589.383C1889.54 588 1872.66 587.446 1852.74 587.446H1791.59C1769.73 587.446 1751.19 588.553 1737.08 590.49C1721.59 592.703 1709.41 596.3 1700.28 602.111C1690.04 608.475 1683.13 617.329 1679.25 628.396C1675.93 638.08 1674.27 649.701 1674.27 663.812C1674.27 676.54 1675.38 687.054 1677.87 696.185C1680.64 706.976 1686.45 715.553 1695.3 721.917C1703.32 727.728 1714.12 731.878 1728.23 734.368C1740.95 736.582 1757.28 737.965 1777.75 738.242L1857.44 739.348C1874.32 739.348 1887.32 740.179 1897.01 740.732C1907.8 741.562 1912.22 743.222 1913.61 743.775C1914.99 744.329 1915.27 745.159 1915.54 745.989C1916.1 748.479 1916.93 753.46 1916.93 762.314C1916.93 770.614 1916.37 777.531 1915.27 782.235C1914.44 785.279 1913.33 786.386 1911.95 787.216C1910.56 788.046 1906.41 790.259 1895.9 791.366C1886.49 792.473 1873.49 793.026 1856.89 793.026H1791.31C1776.37 793.026 1764.2 792.749 1754.51 792.196C1744.83 791.643 1740.12 789.706 1737.63 788.322C1736.25 787.492 1734.04 785.555 1732.38 780.575C1731.27 776.425 1729.61 768.401 1729.61 753.183V746.765C1729.61 742.669 1726.29 739.348 1722.19 739.348H1681.97C1677.87 739.348 1674.55 742.669 1674.55 746.765V753.183C1674.55 771.998 1676.49 786.939 1680.36 798.837C1684.79 812.118 1692.26 822.355 1702.77 829.272C1712.45 835.636 1724.91 839.786 1740.4 841.723C1754.24 843.383 1771.39 844.49 1791.31 844.49H1858.27C1880.41 844.49 1898.67 843.383 1912.5 840.893C1928 838.126 1939.89 833.699 1948.75 827.059C1958.15 819.865 1964.52 810.457 1967.84 798.837C1970.61 788.876 1971.99 776.978 1971.99 762.59C1971.99 749.65 1970.89 738.901 1968.7 729.799C1968.68 729.72 1968.61 729.664 1968.53 729.664V729.664Z" fill="#43996A"></path><path d="M2044.53 592.15H2004.3C2000.21 592.15 1996.89 595.471 1996.89 599.567V832.37C1996.89 836.466 2000.21 839.787 2004.3 839.787H2044.53C2048.63 839.787 2051.95 836.466 2051.95 832.37V599.567C2051.95 595.471 2048.63 592.15 2044.53 592.15Z" fill="#43996A"></path><path d="M2371.66 662.163C2371.88 662.163 2372.05 661.966 2372.01 661.749C2369.79 646.992 2365.94 634.681 2360.46 625.086C2354.64 614.572 2346.34 606.272 2335.83 600.738C2326.42 595.481 2314.53 591.884 2300.41 590.224C2287.69 588.563 2272.19 587.733 2254.48 587.733H2196.66C2178.95 587.733 2163.73 588.563 2150.73 590.224C2136.89 591.884 2124.99 595.481 2115.59 600.738C2105.35 606.272 2097.05 614.572 2090.96 625.086C2085.43 634.771 2081.55 647.222 2079.34 662.163C2077.4 675.997 2076.3 692.875 2076.3 713.073V718.884C2076.3 743.786 2077.96 763.431 2081.28 779.202C2084.87 796.357 2091.79 810.191 2101.2 819.875C2110.88 829.559 2124.16 836.2 2140.49 839.797C2155.15 842.841 2173.97 844.501 2196.38 844.501H2254.21C2276.62 844.501 2295.43 842.841 2310.1 839.797C2326.7 836.2 2339.7 829.559 2349.39 819.875C2359.07 810.191 2365.71 796.357 2369.31 779.202C2372.63 763.707 2374.29 743.233 2374.29 718.884V713.073C2374.29 692.799 2373.2 676.323 2371.3 662.571C2371.27 662.354 2371.44 662.163 2371.66 662.163V662.163ZM2255.04 793.037H2197.21C2184.2 793.037 2173.14 792.483 2164.01 791.653C2156.54 790.823 2150.45 789.44 2146.3 786.949C2142.98 785.289 2140.49 782.522 2138.83 778.649C2136.34 773.668 2134.68 766.751 2133.85 757.62C2132.74 747.383 2132.19 734.378 2132.19 718.607V712.797C2132.19 696.472 2132.74 683.191 2133.85 672.677C2134.95 661.333 2137.17 654.969 2138.83 651.649C2140.49 648.052 2142.98 645.561 2146.02 644.178C2150.45 641.964 2156.26 640.581 2164.01 640.028C2173.14 639.198 2184.2 638.921 2197.21 638.921H2255.04C2268.32 638.921 2279.39 639.198 2288.24 640.028C2295.71 640.581 2301.8 641.964 2306.22 644.178C2309.27 645.838 2311.76 648.052 2313.42 651.649C2315.08 654.969 2317.29 661.333 2318.4 672.677C2319.51 682.914 2320.06 696.472 2320.06 712.797V718.607C2320.06 734.378 2319.51 747.383 2318.4 757.62C2317.29 766.751 2315.63 773.668 2313.42 778.649C2311.48 782.522 2309.27 785.013 2305.95 786.949C2301.8 789.163 2295.71 790.823 2288.24 791.653C2279.39 792.483 2268.32 793.037 2255.04 793.037Z" fill="#43996A"></path><path d="M2657.57 592.15C2653.47 592.15 2650.15 595.471 2650.15 599.567V746.642C2650.15 752.949 2642.78 756.378 2637.96 752.313L2449.96 593.896C2448.63 592.769 2446.93 592.15 2445.18 592.15H2407.72C2403.62 592.15 2400.3 595.471 2400.3 599.567V832.37C2400.3 836.466 2403.62 839.787 2407.72 839.787H2447.95C2452.04 839.787 2455.36 836.466 2455.36 832.37V683.995C2455.36 677.674 2462.76 674.25 2467.58 678.343L2655.55 838.023C2656.89 839.162 2658.59 839.787 2660.35 839.787H2697.8C2701.89 839.787 2705.21 836.466 2705.21 832.37V599.567C2705.21 595.471 2701.89 592.15 2697.8 592.15H2657.57Z" fill="#43996A"></path><path d="M1597.21 238.613C1593.11 238.613 1589.79 241.934 1589.79 246.03V393.105C1589.79 399.412 1582.42 402.841 1577.59 398.776L1389.6 240.358C1388.26 239.231 1386.57 238.613 1384.82 238.613H1347.36C1343.26 238.613 1339.94 241.934 1339.94 246.03V478.833C1339.94 482.929 1343.26 486.25 1347.36 486.25H1387.58C1391.68 486.25 1395 482.929 1395 478.833V330.458C1395 324.137 1402.4 320.713 1407.22 324.806L1595.18 484.486C1596.52 485.624 1598.23 486.25 1599.98 486.25H1637.43C1641.53 486.25 1644.85 482.929 1644.85 478.833V246.03C1644.85 241.934 1641.53 238.613 1637.43 238.613H1597.21Z" fill="#06175D"></path><defs><clipPath id="clip0_73_27"><rect width="1080" height="1080" fill="white" transform="translate(0.0368652)"></rect></clipPath></defs></svg>